{"asset":{"version":"2.0","generator":"Unity 6000.0.54f1 glTFast 6.19.0"},"nodes":[{"name":"Cylinder","mesh":0,"translation":[0,-0.372,0.266],"rotation":[0,0,-0.7071068,0.7071068],"scale":[0.5,0.6,0.5]},{"name":"Cylinder (1)","mesh":0,"translation":[0,-0.372,-0.299],"rotation":[0,0,-0.7071068,0.7071068],"scale":[0.5,0.6,0.5]},{"name":"Cylinder (2)","mesh":2,"translation":[-0.091,0.31,-0.294],"rotation":[0,0,-0.7071068,0.7071068],"scale":[0.3,0.5,0.3]},{"name":"Cylinder (3)","mesh":2,"translation":[-0.544,0.659,-0.296],"scale":[0.05,0.5,0.05]},{"name":"Cube","mesh":1,"translation":[0,0.221,0.293],"scale":[1.1,0.11,0.49]},{"name":"LoadItem","translation":[0,0.701,0],"scale":[2,2,2]},{"name":"Robot","children":[0,1,2,3,4,5],"mesh":3,"translation":[-1,0,3],"scale":[0.5,0.5,0.5]}],"buffers":[{"uri":"Robot.bin","byteLength":6824}],"bufferViews":[{"buffer":0,"byteLength":480,"target":34963},{"buffer":0,"byteLength":72,"byteOffset":480,"target":34963},{"buffer":0,"byteLength":4928,"byteOffset":552,"byteStride":56,"target":34962},{"buffer":0,"byteLength":1344,"byteOffset":5480,"byteStride":56,"target":34962}],"accessors":[{"bufferView":2,"componentType":5126,"count":88,"type":"VEC3","max":[0.5,1,0.5],"min":[-0.5000001,-1,-0.500000238]},{"bufferView":2,"componentType":5126,"count":88,"type":"VEC3","byteOffset":12},{"bufferView":2,"componentType":5126,"count":88,"type":"VEC4","byteOffset":24},{"bufferView":2,"componentType":5126,"count":88,"type":"VEC2","byteOffset":40},{"bufferView":2,"componentType":5126,"count":88,"type":"VEC2","byteOffset":48},{"bufferView":0,"componentType":5123,"count":240,"type":"SCALAR"},{"bufferView":3,"componentType":5126,"count":24,"type":"VEC3","max":[0.5,0.5,0.5],"min":[-0.5,-0.5,-0.5]},{"bufferView":3,"componentType":5126,"count":24,"type":"VEC3","byteOffset":12},{"bufferView":3,"componentType":5126,"count":24,"type":"VEC4","byteOffset":24},{"bufferView":3,"componentType":5126,"count":24,"type":"VEC2","byteOffset":40},{"bufferView":3,"componentType":5126,"count":24,"type":"VEC2","byteOffset":48},{"bufferView":1,"componentType":5123,"count":36,"type":"SCALAR"}],"materials":[{"name":"RobotWheelsMat","pbrMetallicRoughness":{"baseColorFactor":[0,0,0,1],"metallicFactor":0,"roughnessFactor":0.5}},{"name":"AntnennaMat","pbrMetallicRoughness":{"metallicFactor":0,"roughnessFactor":0.5}},{"name":"LightMat","pbrMetallicRoughness":{"baseColorFactor":[0,0.4480459,1,1],"metallicFactor":0,"roughnessFactor":0.5},"emissiveFactor":[0,0.84148407,1]},{"name":"RobotMat","pbrMetallicRoughness":{"baseColorFactor":[0.250646025,0.250646025,0.250646025,1],"metallicFactor":0.39}}],"meshes":[{"name":"Cylinder","primitives":[{"attributes":{"POSITION":0,"NORMAL":1,"TANGENT":2,"TEXCOORD_0":3,"TEXCOORD_1":4},"indices":5,"material":0}]},{"name":"Cube","primitives":[{"attributes":{"POSITION":6,"NORMAL":7,"TANGENT":8,"TEXCOORD_0":9,"TEXCOORD_1":10},"indices":11,"material":2}]},{"name":"Cylinder","primitives":[{"attributes":{"POSITION":0,"NORMAL":1,"TANGENT":2,"TEXCOORD_0":3,"TEXCOORD_1":4},"indices":5,"material":1}]},{"name":"Cube","primitives":[{"attributes":{"POSITION":6,"NORMAL":7,"TANGENT":8,"TEXCOORD_0":9,"TEXCOORD_1":10},"indices":11,"material":3}]}],"scene":0,"scenes":[{"name":"Robot","nodes":[6]}]}